# xmcd CD database file
#
# Track frame offsets:
#	150
#	31622
#	56288
#	82504
#	105630
#	129965
#	151416
#	173125
#	192382
#	222868
#	241912
#
# Disc length: 3563 seconds
#
# Revision: 0
# Processed by: cddbd v1.5.2PL0 Copyright (c) Steve Scherf et al.
# Submitted via: CDex 1.51
#
DISCID=7a0de90b
DTITLE=Various Artist - Congo To Cuba
DYEAR=2002
DGENRE=Salsa
TTITLE0=Val'Carretero
TTITLE1=Safiatou
TTITLE2=Canto A lLa Vueltabajera
TTITLE3=Yiri Yiri Boum
TTITLE4=Lekela Muadi
TTITLE5=Le Monde Est Fou
TTITLE6=Son Soneate
TTITLE7=Igualita Que Tu
TTITLE8=Ritmo De Mi Son
TTITLE9=Tougnafo
TTITLE10=African Salsa
EXTD=YEAR: 2002
EXTT0=
EXTT1=
EXTT2=
EXTT3=
EXTT4=
EXTT5=
EXTT6=
EXTT7=
EXTT8=
EXTT9=
EXTT10=
PLAYORDER=
